# xmcd CD database file
#
# Track frame offsets:
#	150
#	9989
#	21067
#	32160
#	44333
#	56231
#	68852
#	78233
#	91390
#	102157
#	113287
#	123989
#	135885
#	148137
#	160809
#	173135
#	183184
#	196108
#	209078
#	219208
#	233213
#	245308
#	256406
#
# Disc length: 3581 seconds
#
# Revision: 2
# Processed by: cddbd v1.5.2PL0 Copyright (c) Steve Scherf et al.
# Submitted via: CDex 1.51
#
DISCID=2f0dfb17
DTITLE=Roy Drusky - Greatest Hits Volumes 1 and 2
DYEAR=2007
DGENRE=Country
TTITLE0=White Lightnin' Express
TTITLE1=Pick Of The Week
TTITLE2=(From Now On All Of My Friends Are Gonna Be) Strangers
TTITLE3=All For The Love Of A Girl
TTITLE4=Lonely Thing Called Me
TTITLE5=Another (Just Like Me)
TTITLE6=Peel Me A 'nanner
TTITLE7=Yesterday
TTITLE8=So Much Got Lost
TTITLE9=Anymore
TTITLE10=Room Across The Hall
TTITLE11=Three Hearts In A Tangle
TTITLE12=Weakness In A Man
TTITLE13=New Lips
TTITLE14=If The Whole World Stopped Lovin'
TTITLE15=Unless You Make Him Set You Free
TTITLE16=Rainbows And Roses
TTITLE17=Woman, Woman
TTITLE18=Too Much Of You
TTITLE19=Now (Is A Lonely Time)
TTITLE20=The World Is Round
TTITLE21=I've Got A Right To The Blues
TTITLE22=Too Many Footprints
EXTD=YEAR: 2007
EXTT0=
EXTT1=
EXTT2=
EXTT3=
EXTT4=
EXTT5=
EXTT6=
EXTT7=
EXTT8=
EXTT9=
EXTT10=
EXTT11=
EXTT12=
EXTT13=
EXTT14=
EXTT15=
EXTT16=
EXTT17=
EXTT18=
EXTT19=
EXTT20=
EXTT21=
EXTT22=
PLAYORDER=
